<?xml version="1.0" encoding="utf-8"?>
<!-- Generator: Adobe Illustrator 24.1.0, SVG Export Plug-In . SVG Version: 6.00 Build 0)  -->
<svg version="1.1" id="Layer_1" xmlns="http://www.w3.org/2000/svg" xmlns:xlink="http://www.w3.org/1999/xlink" x="0px" y="0px"
	 viewBox="0 0 24 24" style="enable-background:new 0 0 24 24;" xml:space="preserve">
<style type="text/css">
	.st0{fill:#6563FF;}
	.st1{fill:#B2B1FF;}
</style>
<g>
	<path class="st0" d="M16.2,4.7l0.7-1.2c0,0,0,0,0,0C17.1,3,17,2.4,16.5,2.1C16,1.9,15.4,2,15.1,2.5l-0.6,1.1
		C15.1,3.8,15.7,4.2,16.2,4.7z"/>
	<path class="st0" d="M7.8,4.7c0.5-0.5,1-0.8,1.7-1.1L8.9,2.5c0,0,0,0,0,0C8.6,2,8,1.9,7.5,2.1S6.9,3,7.1,3.5L7.8,4.7z"/>
</g>
<rect x="6" y="9" class="st0" width="12" height="2"/>
<g>
	<path class="st1" d="M12,3C8.7,3,6,5.7,6,9h12C18,5.7,15.3,3,12,3z"/>
	<g>
		<path class="st1" d="M21,9c-0.6,0-1,0.4-1,1v4c0,0,0,0,0,0c0,0.6,0.4,1,1,1c0,0,0,0,0,0c0.6,0,1-0.4,1-1v-4C22,9.4,21.6,9,21,9z"
			/>
		<path class="st1" d="M3,9c-0.6,0-1,0.4-1,1v4c0,0,0,0,0,0c0,0.6,0.4,1,1,1c0,0,0,0,0,0c0.6,0,1-0.4,1-1v-4C4,9.4,3.6,9,3,9z"/>
		<path class="st1" d="M6,17C6,17,6,17,6,17c0,0.6,0.4,1,1,1h2v3c0,0,0,0,0,0c0,0.6,0.4,1,1,1c0,0,0,0,0,0c0.6,0,1-0.4,1-1v-3h2v3
			c0,0,0,0,0,0c0,0.6,0.4,1,1,1c0,0,0,0,0,0c0.6,0,1-0.4,1-1v-3h2c0,0,0,0,0,0c0.6,0,1-0.4,1-1v-6H6V17z"/>
	</g>
</g>
</svg>
