<?xml version="1.0" encoding="utf-8"?>
<!-- Generator: Adobe Illustrator 24.1.0, SVG Export Plug-In . SVG Version: 6.00 Build 0)  -->
<svg version="1.1" id="Layer_1" xmlns="http://www.w3.org/2000/svg" xmlns:xlink="http://www.w3.org/1999/xlink" x="0px" y="0px"
	 viewBox="0 0 24 24" style="enable-background:new 0 0 24 24;" xml:space="preserve">
<style type="text/css">
	.st0{fill-rule:evenodd;clip-rule:evenodd;fill:#B2B1FF;}
	.st1{fill:#6563FF;}
</style>
<path class="st0" d="M18.33264,10.92169L18.22382,10.7l-0.1789-0.13983c-0.23486-0.1839-1.42285,0.01111-1.74219-0.27844
	c-0.22723-0.20819-0.26269-0.58386-0.33007-1.08936c-0.0155-0.4774-0.13922-0.94505-0.36182-1.36767
	c-0.65779-1.16389-1.80305-1.97126-3.1203-2.1997H9.66681C7.44133,5.63088,5.63697,7.4303,5.625,9.65576v4.69434
	c0.01338,2.22392,1.81785,4.02085,4.04181,4.0249h4.639c2.22099-0.00703,4.02229-1.80085,4.03857-4.02179l0.01965-2.67548
	l0.00458-0.57843L18.33264,10.92169z M9.71844,8.91663h2.23877c0.42572,0,0.77084,0.34512,0.77084,0.77084
	c0,0.42572-0.34512,0.77084-0.77084,0.77084H9.71844c-0.42572,0-0.77084-0.34512-0.77084-0.77084
	C8.9476,9.26175,9.29272,8.91663,9.71844,8.91663z M14.26709,15.04163H9.71844c-0.41421,0.01266-0.76026-0.31287-0.77292-0.72708
	c-0.01266-0.41421,0.31287-0.76026,0.72709-0.77292c0.01527-0.00047,0.03056-0.00047,0.04583,0h4.54865
	c0.41421-0.01048,0.7585,0.31681,0.76898,0.73102c0.01048,0.41421-0.31681,0.7585-0.73102,0.76898
	C14.29239,15.04195,14.27974,15.04195,14.26709,15.04163z"/>
<g>
	<path class="st1" d="M14.26709,13.54163H9.71844c-0.01526-0.00049-0.03058-0.00049-0.04584,0
		c-0.41418,0.01263-0.73975,0.3587-0.72711,0.77295c0.0127,0.41418,0.3587,0.73969,0.77295,0.72705h4.54865
		c0.01263,0.00031,0.02533,0.00031,0.03796,0c0.41418-0.0105,0.74152-0.35474,0.73102-0.76898
		C15.02557,13.85846,14.68127,13.53113,14.26709,13.54163z"/>
	<path class="st1" d="M9.71844,10.45831h2.23877c0.42572,0,0.77081-0.34509,0.77081-0.77087
		c0-0.42572-0.34509-0.77081-0.77081-0.77081H9.71844c-0.42572,0-0.77087,0.34509-0.77087,0.77081
		C8.94757,10.11322,9.29272,10.45831,9.71844,10.45831z"/>
	<path class="st1" d="M19.5,2h-15C3.11926,2,2,3.11926,2,4.5v15C2,20.88074,3.11926,22,4.5,22h15c1.38074,0,2.5-1.11926,2.5-2.5v-15
		C22,3.11926,20.88074,2,19.5,2z M18.36401,11.67773l-0.01965,2.67548c-0.01624,2.22095-1.81757,4.01477-4.03857,4.02179H9.66681
		c-2.22394-0.00403-4.02844-1.80096-4.04181-4.0249V9.65576C5.63696,7.4303,7.44135,5.63086,9.66681,5.625h2.82373
		c1.31726,0.22845,2.46252,1.03583,3.1203,2.19971c0.2226,0.42261,0.34631,0.89026,0.36182,1.36768
		c0.06738,0.50549,0.10284,0.88116,0.33008,1.08936c0.31934,0.28955,1.50732,0.09454,1.74219,0.27844l0.17889,0.13983
		l0.10883,0.22168l0.03595,0.17761L18.36401,11.67773z"/>
</g>
</svg>
