<?xml version="1.0" encoding="utf-8"?>
<!-- Generator: Adobe Illustrator 24.1.0, SVG Export Plug-In . SVG Version: 6.00 Build 0)  -->
<svg version="1.1" id="Layer_1" xmlns="http://www.w3.org/2000/svg" xmlns:xlink="http://www.w3.org/1999/xlink" x="0px" y="0px"
	 viewBox="0 0 24 24" style="enable-background:new 0 0 24 24;" xml:space="preserve">
<style type="text/css">
	.st0{fill:#6563FF;}
</style>
<g>
	<path class="st0" d="M3.8084,11.6513c0.42191,0.08136,0.84863-0.1159,1.06-0.49c0.39438,0.20225,0.82732,0.31816,1.27,0.34
		c0.47581,0.00808,0.93565-0.17155,1.28-0.5c0.20634-0.20141,0.31569-0.48209,0.3-0.77v-0.62
		c-0.16628-1.18261-0.11545-2.38563,0.15-3.55c0.69512-1.58056,2.27373-2.58692,4-2.55h0.4c1.72703-0.03965,3.30703,0.9676,4,2.55
		c0.26726,1.19122,0.31807,2.42079,0.15,3.63v0.54c-0.01606,0.29288,0.09727,0.57805,0.31,0.78
		c0.33514,0.32389,0.78394,0.50341,1.25,0.5c0.43416-0.03788,0.85607-0.16377,1.24-0.37c0.15955,0.36559,0.52111,0.60139,0.92,0.6
		l0,0c0.55228,0,1-0.44771,1-1c-0.05095-0.68602-0.5271-1.2662-1.19-1.45c-0.4706-0.19501-0.9994-0.19501-1.47,0
		c0.16674-1.34375,0.04399-2.70762-0.36-4c-1.00548-2.36573-3.36073-3.87103-5.93-3.79h-0.4
		c-2.50507-0.0362-4.78732,1.43407-5.79,3.73c-0.41706,1.32424-0.53657,2.72423-0.35,4.1l-0.11-0.05
		c-0.9703-0.39955-2.08078,0.06314-2.48032,1.03344C3.0356,10.36931,3.01569,10.42489,2.9984,10.4813
		c-0.10219,0.54275,0.25495,1.06557,0.7977,1.16776C3.80019,11.64984,3.80429,11.65058,3.8084,11.6513z"/>
	<path class="st0" d="M21.9984,16.11131c-1.25628-0.27908-2.34171-1.06421-3-2.17c-0.30928-0.4584-0.9316-0.57928-1.39-0.27
		c-0.4584,0.30928-0.57928,0.9316-0.27,1.39c0.61858,0.94399,1.43812,1.73962,2.4,2.33c-0.14841,0.03497-0.29864,0.06168-0.45,0.08
		c-0.57786,0.1316-1.00558,0.61985-1.06,1.21c-0.66197-0.11189-1.33803-0.11189-2,0c-0.73905,0.16297-1.42619,0.50655-2,1
		c-0.58637,0.51761-1.32921,0.82391-2.11,0.87h-0.26c-0.78079-0.04609-1.52363-0.35239-2.11-0.87
		c-0.55685-0.46837-1.21919-0.7944-1.93-0.95c-0.66237-0.10701-1.33763-0.10701-2,0c-0.06168-0.59044-0.49154-1.07654-1.07-1.21
		l-0.45-0.12c0.67894-0.3927,1.28459-0.90023,1.79-1.5c0.23998-0.28013,0.45418-0.58136,0.64-0.9
		c0.29629-0.46608,0.15864-1.0841-0.30744-1.38039c-0.46608-0.29629-1.0841-0.15864-1.38039,0.30744
		c-0.01507,0.02371-0.02914,0.04805-0.04217,0.07295c-0.13551,0.2168-0.28587,0.42396-0.45,0.62
		c-0.64396,0.78622-1.5489,1.31499-2.55,1.49c-0.59212,0.1125-1.01549,0.63749-1,1.24c-0.00063,0.1824,0.03684,0.36292,0.11,0.53
		c0.32,0.72,1.16,1.17,2.79,1.48v0.12c0,0.12,0.06,0.25,0.09,0.35c0.14028,0.59167,0.67197,1.00705,1.28,1
		c0.20318-0.0024,0.40506-0.03268,0.6-0.09c0.52593-0.09291,1.06407-0.09291,1.59,0c0.41274,0.12071,0.7947,0.32874,1.12,0.61
		c0.97598,0.76124,2.18237,1.1669,3.42,1.15h0.16c1.20157-0.04205,2.3552-0.4817,3.28-1.25
		c0.3253-0.28126,0.70726-0.48929,1.12-0.61c0.52554-0.08322,1.06228-0.06284,1.58,0.06c0.20479,0.03609,0.41209,0.05615,0.62,0.06
		c0.57597,0.01577,1.0881-0.3642,1.24-0.92c0-0.12,0.07-0.24,0.1-0.36v-0.12c1.63-0.31,2.47-0.75,2.76-1.42
		c0.08085-0.15871,0.12849-0.33225,0.14-0.51C23.04613,16.80194,22.61718,16.23573,21.9984,16.11131z"/>
</g>
</svg>
