<?xml version="1.0" encoding="utf-8"?>
<!-- Generator: Adobe Illustrator 24.1.0, SVG Export Plug-In . SVG Version: 6.00 Build 0)  -->
<svg version="1.1" id="Layer_1" xmlns="http://www.w3.org/2000/svg" xmlns:xlink="http://www.w3.org/1999/xlink" x="0px" y="0px"
	 viewBox="0 0 24 24" style="enable-background:new 0 0 24 24;" xml:space="preserve">
<style type="text/css">
	.st0{fill:#B2B1FF;}
	.st1{fill:#D8D8FF;}
	.st2{fill:#6563FF;}
</style>
<g>
	<path class="st0" d="M18.89258,7c-1.66233-0.00793-3.00447-1.36011-3-3.02246c0.0124-1.65692,1.36566-2.99007,3.02258-2.97767
		c1.63067,0.0122,2.95301,1.32467,2.97742,2.95521v0.02246C21.89705,5.63989,20.55491,6.99207,18.89258,7z M11.7998,23
		c-6.168,0-11-3.0752-11-7s4.832-7,11-7s11,3.0752,11,7S17.96777,23,11.7998,23z"/>
	<g>
		<path class="st1" d="M20.49896,8.29218c-1.63556-0.69507-3.47937-0.14093-4.49719,1.22247
			c2.95215,0.75647,5.22406,2.29492,6.22827,4.23462c0.09949-0.16132,0.19427-0.32599,0.26874-0.50116
			C23.31506,11.32733,22.41974,9.10846,20.49896,8.29218z"/>
		<path class="st1" d="M11.7998,9c0.39105,0,0.77649,0.01288,1.15594,0.03705l0.85577-5.70508l2.08734,0.70984
			c-0.00043-0.02191-0.00635-0.0423-0.00629-0.06427c0.00519-0.69354,0.25482-1.32227,0.65375-1.82739l-3.22406-1.09644
			c-0.05725-0.01959-0.11621-0.03394-0.17609-0.04291c-0.54572-0.08136-1.05408,0.29504-1.13544,0.84076l-1.07648,7.17542
			C11.22058,9.01337,11.50714,9,11.7998,9z"/>
		<path class="st1" d="M7.59216,9.51593C7.50409,9.39874,7.41998,9.27838,7.31854,9.17188
			C5.87958,7.66144,3.48859,7.60345,1.97809,9.04242c-1.31464,1.25244-1.52649,3.2251-0.61121,4.71161
			C2.36908,11.81329,4.64032,10.2735,7.59216,9.51593z"/>
	</g>
	<path class="st2" d="M11.8418,19.5c-1.37306,0.12061-2.73663-0.31854-3.78125-1.21777
		c-0.39048-0.39102-0.39005-1.02455,0.00097-1.41504s1.02455-0.39005,1.41504,0.00097
		c0.68126,0.49982,1.52549,0.72535,2.36525,0.63184c0.84081,0.09332,1.68601-0.13252,2.3682-0.63281
		c0.39016-0.39134,1.02369-0.3923,1.41503-0.00214c0.39134,0.39016,0.3923,1.02369,0.00214,1.41503
		c-0.00103,0.00104-0.00207,0.00208-0.00311,0.00311C14.5785,19.18138,13.21495,19.62005,11.8418,19.5z M10,14.00207
		c0.00017-0.55229-0.4474-1.00014-0.99969-1.00031C8.44802,13.00159,8.00017,13.44917,8,14.00145
		c-0.00017,0.55229,0.44741,1.00014,0.99969,1.00031c0.00021,0,0.00041,0,0.00062,0C9.55208,15.00093,9.99917,14.55384,10,14.00207z
		 M16,14.00207c0.00017-0.55229-0.4474-1.00014-0.99969-1.00031C14.44802,13.00159,14.00017,13.44917,14,14.00145
		c-0.00017,0.55229,0.44741,1.00014,0.99969,1.00031c0.00021,0,0.00041,0,0.00062,0
		C15.55208,15.00093,15.99917,14.55384,16,14.00207z"/>
</g>
</svg>
